<svg width="24" height="20" viewBox="0 0 24 20" fill="none" xmlns="http://www.w3.org/2000/svg">
<g id="Group 1">
<path id="Vector" d="M9.5272 14.4725L9.75 14.2274V13.0188L6.09961 5.31251H4.40039L0.75 13.0188V14.2864L0.948469 14.5017C1.49358 15.092 2.15483 15.5631 2.89069 15.8857C3.62656 16.2082 4.42115 16.3751 5.22459 16.3759H5.24428C6.05103 16.3723 6.84825 16.2013 7.58549 15.8737C8.32272 15.5461 8.98391 15.0689 9.5272 14.4725ZM8.25 13.6379C7.44976 14.4327 6.36707 14.878 5.23917 14.876H5.2237C4.11564 14.8816 3.04899 14.4553 2.25 13.6875V13.3563L5.25 7.02288L8.25 13.3563V13.6379ZM19.5996 5.31251H17.9004L14.25 13.0188V14.2864L14.4485 14.5017C14.9936 15.092 15.6548 15.5631 16.3907 15.8857C17.1266 16.2082 17.9212 16.3751 18.7246 16.3759H18.7443C19.551 16.3723 20.3483 16.2013 21.0855 15.8736C21.8227 15.546 22.4839 15.0689 23.0272 14.4724L23.25 14.2274V13.0188L19.5996 5.31251ZM21.75 13.6379C20.9498 14.4327 19.8671 14.878 18.7392 14.876H18.7237C17.6156 14.8816 16.549 14.4553 15.75 13.6875V13.3563L18.75 7.02288L21.75 13.3563V13.6379Z" fill="white"/>
<path id="Vector_2" d="M12.75 5.57777C13.1672 5.45237 13.5469 5.22549 13.8549 4.91743C14.163 4.60937 14.3899 4.22973 14.5153 3.8125H19.5V2.3125H14.5153C14.3538 1.77079 14.0218 1.29566 13.5686 0.957824C13.1154 0.619987 12.5653 0.437492 12 0.437492C11.4347 0.437492 10.8846 0.619987 10.4314 0.957824C9.97819 1.29566 9.64617 1.77079 9.48473 2.3125H4.5V3.8125H9.48473C9.61013 4.22973 9.83701 4.60937 10.1451 4.91743C10.4531 5.22549 10.8328 5.45237 11.25 5.57777V18.0625H6.375V19.5625H17.625V18.0625H12.75V5.57777ZM10.875 3.0625C10.875 2.84 10.941 2.62249 11.0646 2.43749C11.1882 2.25248 11.3639 2.10829 11.5695 2.02314C11.775 1.93799 12.0012 1.91571 12.2195 1.95912C12.4377 2.00253 12.6382 2.10968 12.7955 2.26701C12.9528 2.42434 13.06 2.6248 13.1034 2.84303C13.1468 3.06126 13.1245 3.28746 13.0394 3.49302C12.9542 3.69859 12.81 3.87429 12.625 3.99791C12.44 4.12152 12.2225 4.1875 12 4.1875C11.7016 4.1875 11.4155 4.06898 11.2045 3.858C10.9935 3.64702 10.875 3.36087 10.875 3.0625Z" fill="white"/>
</g>
</svg>
