<svg width="23" height="20" viewBox="0 0 23 20" fill="none" xmlns="http://www.w3.org/2000/svg">
<g id="Group 1">
<path id="Vector" d="M8.7772 14.4725L9 14.2274V13.0187L5.34961 5.3125H3.65039L0 13.0187V14.2863L0.198469 14.5017C0.74358 15.092 1.40483 15.5631 2.14069 15.8856C2.87656 16.2082 3.67115 16.3751 4.47459 16.3759H4.49428C5.30103 16.3723 6.09825 16.2013 6.83549 15.8737C7.57272 15.546 8.23391 15.0689 8.7772 14.4725ZM7.5 13.6379C6.69976 14.4327 5.61707 14.8779 4.48917 14.876H4.4737C3.36564 14.8816 2.29899 14.4553 1.5 13.6875V13.3562L4.5 7.02288L7.5 13.3562V13.6379ZM18.8496 5.3125H17.1504L13.5 13.0187V14.2863L13.6985 14.5017C14.2436 15.092 14.9048 15.5631 15.6407 15.8856C16.3766 16.2082 17.1712 16.3751 17.9746 16.3759H17.9943C18.801 16.3723 19.5983 16.2013 20.3355 15.8736C21.0727 15.546 21.7339 15.0689 22.2772 14.4724L22.5 14.2274V13.0187L18.8496 5.3125ZM21 13.6379C20.1998 14.4327 19.1171 14.8779 17.9892 14.876H17.9737C16.8656 14.8816 15.799 14.4553 15 13.6875V13.3562L18 7.02288L21 13.3562V13.6379Z" fill="#3C3C3C"/>
<path id="Vector_2" d="M12 5.57778C12.4172 5.45238 12.7969 5.2255 13.1049 4.91744C13.413 4.60937 13.6399 4.22974 13.7653 3.81251H18.75V2.31251H13.7653C13.6038 1.77079 13.2718 1.29567 12.8186 0.957832C12.3654 0.619995 11.8153 0.4375 11.25 0.4375C10.6847 0.4375 10.1346 0.619995 9.68138 0.957832C9.22819 1.29567 8.89617 1.77079 8.73473 2.31251H3.75V3.81251H8.73473C8.86013 4.22974 9.08701 4.60937 9.39508 4.91744C9.70314 5.2255 10.0828 5.45238 10.5 5.57778V18.0625H5.625V19.5625H16.875V18.0625H12V5.57778ZM10.125 3.06251C10.125 2.84001 10.191 2.6225 10.3146 2.4375C10.4382 2.25249 10.6139 2.1083 10.8195 2.02315C11.025 1.938 11.2512 1.91572 11.4695 1.95913C11.6877 2.00254 11.8882 2.10968 12.0455 2.26702C12.2028 2.42435 12.31 2.62481 12.3534 2.84304C12.3968 3.06126 12.3745 3.28746 12.2894 3.49303C12.2042 3.6986 12.06 3.8743 11.875 3.99792C11.69 4.12153 11.4725 4.18751 11.25 4.18751C10.9516 4.18751 10.6655 4.06899 10.4545 3.85801C10.2435 3.64703 10.125 3.36088 10.125 3.06251Z" fill="#3C3C3C"/>
</g>
</svg>
