<svg width="20" height="20" viewBox="0 0 20 20" fill="none" xmlns="http://www.w3.org/2000/svg">
<g id="Icon">
<path id="Vector" d="M14.166 5.00001H18.3327V6.66667H16.666V17.5C16.666 17.721 16.5782 17.933 16.4219 18.0893C16.2657 18.2455 16.0537 18.3333 15.8327 18.3333H4.16602C3.945 18.3333 3.73304 18.2455 3.57676 18.0893C3.42048 17.933 3.33268 17.721 3.33268 17.5V6.66667H1.66602V5.00001H5.83268V2.50001C5.83268 2.27899 5.92048 2.06703 6.07676 1.91075C6.23304 1.75447 6.445 1.66667 6.66602 1.66667H13.3327C13.5537 1.66667 13.7657 1.75447 13.9219 1.91075C14.0782 2.06703 14.166 2.27899 14.166 2.50001V5.00001ZM14.9993 6.66667H4.99935V16.6667H14.9993V6.66667ZM7.49935 3.33334V5.00001H12.4993V3.33334H7.49935Z" fill="#3C3C3C"/>
</g>
</svg>
