<svg width="100" height="64" viewBox="0 0 100 64" fill="none" xmlns="http://www.w3.org/2000/svg">
<g id="Logo_SVG 2">
<g id="Group">
<path id="Vector" d="M71.9786 51.6993V41.1722C71.9786 40.4878 71.9292 39.874 71.8304 39.3377C71.7317 38.8015 71.5694 38.3499 71.3506 37.9901C71.1249 37.6232 70.8356 37.348 70.4757 37.1575C70.1159 36.967 69.6785 36.8682 69.1634 36.8682C68.5778 36.8682 68.0909 37.0023 67.7029 37.2775C67.3148 37.5456 67.0044 37.9125 66.7645 38.364C66.5316 38.8156 66.3623 39.3448 66.2565 39.9445C66.1506 40.5442 66.1012 41.1722 66.1012 41.8284V47.9315C66.1012 48.376 66.1647 48.7359 66.2847 49.011C66.4046 49.2862 66.574 49.4908 66.7927 49.6461C67.0114 49.7942 67.2725 49.893 67.59 49.9424C67.9075 49.9918 68.2603 50.0129 68.6483 50.0129H68.7542V51.7134H57.959V50.0129H58.0295C58.4317 50.0129 58.7986 49.9918 59.1302 49.9424C59.4618 49.893 59.7511 49.7942 59.9981 49.639C60.245 49.4838 60.4355 49.258 60.5766 48.9687C60.7178 48.6794 60.7813 48.2914 60.7813 47.8116V38.3288C60.7813 37.8843 60.7178 37.5244 60.5978 37.2492C60.4779 36.9811 60.3085 36.7695 60.0827 36.6142C59.857 36.4661 59.5959 36.3673 59.2855 36.3179C58.975 36.2685 58.6293 36.2473 58.2412 36.2473H58.1283V34.5469H65.5086L65.9742 36.8259H66.1436C66.4963 36.2191 66.8703 35.7464 67.2654 35.3865C67.6605 35.0338 68.0839 34.7586 68.5284 34.5751C68.9729 34.3846 69.4456 34.2718 69.9466 34.2153C70.4405 34.1659 70.9696 34.1377 71.52 34.1377C72.4231 34.1377 73.2345 34.2576 73.9542 34.4975C74.6739 34.7374 75.2877 35.1043 75.7816 35.6053C76.2826 36.1062 76.6636 36.7412 76.9246 37.5174C77.1857 38.2935 77.3197 39.2248 77.3197 40.3044V47.7199C77.3197 48.2208 77.3691 48.6159 77.4679 48.9123C77.5667 49.2086 77.7078 49.4344 77.9054 49.5896C78.0959 49.7448 78.3428 49.8507 78.6462 49.9001C78.9425 49.9495 79.2953 49.9777 79.6904 49.9777H79.7892V51.6781H71.9786V51.6993Z" fill="#9CC31B"/>
<path id="Vector_2" d="M90.1042 51.6994C88.6155 51.6994 87.3031 51.5018 86.1671 51.1138C85.0312 50.7257 84.0787 50.1612 83.3096 49.4204C82.5405 48.6796 81.962 47.7764 81.5739 46.704C81.1858 45.6315 80.9883 44.4109 80.9883 43.035C80.9883 41.5604 81.1858 40.2621 81.5739 39.1473C81.962 38.0325 82.5264 37.1012 83.2743 36.3462C84.0152 35.5983 84.9324 35.0339 86.0119 34.6599C87.0914 34.286 88.3262 34.1025 89.7091 34.1025C90.9791 34.1025 92.1221 34.2648 93.1452 34.5894C94.1612 34.9139 95.0291 35.3937 95.7346 36.0287C96.4473 36.6637 96.9905 37.454 97.3645 38.3994C97.7455 39.3449 97.929 40.4385 97.929 41.6874V43.3031H86.407C86.4423 44.3615 86.5693 45.2646 86.7951 46.0266C87.0209 46.7886 87.3243 47.4095 87.7194 47.9034C88.1145 48.3973 88.5943 48.7572 89.1587 48.9971C89.7232 49.2299 90.3723 49.3498 91.1061 49.3498C91.7129 49.3498 92.2703 49.2863 92.7854 49.1593C93.3004 49.0323 93.7661 48.8489 94.1824 48.6231C94.5987 48.3903 94.9656 48.1222 95.2831 47.8047C95.6006 47.4942 95.8264 47.1837 96.031 46.831C96.2426 46.831 97.428 46.831 97.6891 46.831C97.6891 46.831 97.5409 49.1382 95.5935 50.4505C95.0643 50.8245 94.0342 51.2408 93.1734 51.4313C92.3197 51.6077 91.2966 51.6994 90.1042 51.6994ZM89.7797 36.1557C88.7919 36.1557 88.0157 36.5932 87.4372 37.461C86.8586 38.3289 86.5411 39.606 86.4846 41.2923H92.5596C92.5596 40.495 92.5102 39.7753 92.4044 39.1403C92.2985 38.5053 92.1362 37.969 91.9175 37.5245C91.6917 37.0871 91.4095 36.7484 91.0567 36.5085C90.711 36.2757 90.2806 36.1557 89.7797 36.1557Z" fill="#9CC31B"/>
<g id="Group_2">
<path id="Vector_3" d="M51.6089 17.0699C51.6089 18.9538 51.3267 20.6119 50.7623 22.0301C50.1978 23.4483 49.4287 24.6971 48.4409 25.7625C47.4602 26.8279 46.296 27.724 44.9554 28.4507C43.6149 29.1775 42.1614 29.7842 40.6021 30.2781V30.6027C42.6271 30.9273 44.4757 31.4917 46.1479 32.282C47.82 33.0722 49.2594 34.1094 50.4589 35.3794C51.6583 36.6494 52.5897 38.1523 53.2529 39.888C53.9161 41.6237 54.2478 43.5993 54.2478 45.8147C54.2478 51.2264 52.371 55.2764 48.6173 57.9716C44.8637 60.6669 39.1416 62.0075 31.458 62.0075L6.24805 61.9369V58.4091H7.37695C8.38591 58.4091 8.11074 58.4162 8.9927 58.275C9.87466 58.141 10.6437 57.8588 11.314 57.4354C11.9773 57.0121 12.4994 56.4053 12.8733 55.608C13.2473 54.8178 13.4378 53.7665 13.4378 52.4541V11.2913C13.4378 10.0637 13.2402 9.0688 12.8522 8.3209C12.4641 7.56595 11.9349 6.98738 11.2717 6.57815C10.6085 6.16892 9.83233 5.90081 8.95037 5.78086C8.06841 5.66092 8.35769 5.52686 7.37695 5.52686H6.24805V1.99902L28.8121 2.06958C36.4957 2.06958 42.2178 3.2761 45.9715 5.69619C49.7321 8.11629 51.6089 11.9052 51.6089 17.0699ZM22.4055 28.5072H28.5581C31.1546 28.5072 33.3206 28.2884 35.0563 27.851C36.792 27.4135 38.175 26.7362 39.2192 25.819C40.2564 24.9017 41.0043 23.7234 41.4488 22.27C41.8933 20.8235 42.1191 19.0879 42.1191 17.0629C42.1191 15.0167 41.8721 13.2951 41.3853 11.9193C40.8914 10.5434 40.1011 9.42864 39.0005 8.58196C37.8998 7.73528 36.4816 7.13555 34.7318 6.77571C32.982 6.42293 30.8512 6.23948 28.3393 6.23948H22.4055V28.5072ZM22.4055 57.8164H31.0276C33.5394 57.8164 35.6631 57.5977 37.3988 57.1602C39.1345 56.7228 40.5457 56.0172 41.6463 55.0506C42.747 54.084 43.5373 52.814 44.0312 51.2617C44.5251 49.7024 44.7649 47.8044 44.7649 45.5607C44.7649 43.3735 44.5462 41.4755 44.1158 39.8597C43.6854 38.244 42.9375 36.9105 41.8862 35.8451C40.8349 34.7797 39.4379 33.9894 37.7022 33.4673C35.9665 32.9522 33.8004 32.6912 31.2039 32.6912H22.4055V57.8164Z" fill="#362153"/>
<g id="Group_3">
<path id="Vector_4" d="M34.068 51.3251L2.02117 51.3392V48.6369L23.7032 15.9409H12.9222C12.0191 15.9409 12.7176 15.9339 12.0049 15.9409C11.384 15.948 11.7439 15.9198 10.5726 15.9409C10.0294 15.948 10.4033 15.9551 9.81768 15.9409C9.71185 15.9409 10.0717 15.9409 8.7805 15.9409H7.89148H2.02117L2 12.6389L34.2867 12.6318V15.3835L12.5553 48.0301H25.0297C26.2151 48.0301 33.2566 47.9878 34.068 47.9878" fill="#9CC31B"/>
<g id="Group_4">
<path id="Vector_5" d="M22.4116 16.3433H13.4297V47.6916H22.4116V16.3433Z" fill="#362153"/>
<path id="Vector_6" d="M26.1799 28.5073H21.9395V32.6843H26.1799V28.5073Z" fill="#362153"/>
</g>
</g>
</g>
<path id="Vector_7" d="M61.2891 12.6318V22.3404C61.2891 26.2563 63.5116 27.2794 65.8612 27.2794C68.4859 27.2794 70.1651 26.1505 70.1651 22.3404V12.6318H73.8976V22.4251C73.8976 27.7451 70.8707 30.137 65.7483 30.137C60.7529 30.137 57.5566 27.8721 57.5566 22.5451V12.6318H61.2891Z" fill="#362153"/>
<path id="Vector_8" d="M86.9793 30.137V23.7445C86.9793 23.5258 86.9158 23.4129 86.7818 23.2153L79.5215 12.6318H83.8889C85.7093 15.4541 88.1435 19.0737 88.969 20.6612C89.851 19.0807 92.2781 15.4541 94.1055 12.6318H98.1202L90.7753 23.3565C90.6836 23.4976 90.6694 23.5893 90.6694 23.808V30.137H86.9793Z" fill="#362153"/>
<path id="Vector_9" d="M57.4073 42.8935C57.4073 45.8568 56.6312 48.0653 55.0789 49.5187C53.5267 50.9722 51.2477 51.6989 48.2349 51.6989C46.8309 51.6989 45.5608 51.5155 44.439 51.1557C43.3171 50.7888 42.3646 50.2455 41.5814 49.5187C40.7983 48.792 40.1985 47.8748 39.7823 46.767C39.366 45.6593 39.1543 44.3681 39.1543 42.8935C39.1543 39.9301 39.9304 37.7287 41.4827 36.2823C43.0349 34.8359 45.321 34.1162 48.3408 34.1162C49.7519 34.1162 51.0078 34.2926 52.1297 34.6524C53.2445 35.0123 54.197 35.5556 54.9802 36.2823C55.7633 37.009 56.3631 37.9263 56.7864 39.027C57.2027 40.1276 57.4073 41.4118 57.4073 42.8935ZM44.6154 42.8935C44.6154 44.0083 44.6789 44.9961 44.8129 45.8427C44.947 46.6965 45.1587 47.402 45.448 47.9806C45.7372 48.5521 46.1182 48.9896 46.591 49.2788C47.0637 49.5681 47.6352 49.7163 48.3055 49.7163C48.9828 49.7163 49.5473 49.5681 50.013 49.2788C50.4786 48.9896 50.8526 48.5521 51.1489 47.9806C51.4382 47.4091 51.6499 46.6965 51.7769 45.8427C51.9039 44.989 51.9674 44.0083 51.9674 42.8935C51.9674 41.7646 51.9039 40.7768 51.7698 39.9371C51.6358 39.0905 51.4241 38.3849 51.1348 37.8204C50.8455 37.256 50.4645 36.8326 49.9918 36.5504C49.5191 36.2682 48.9476 36.1271 48.2773 36.1271C47.5999 36.1271 47.0284 36.2682 46.5628 36.5504C46.09 36.8326 45.7161 37.256 45.4268 37.8204C45.1375 38.3849 44.9329 39.0905 44.8059 39.9371C44.6789 40.7768 44.6154 41.7646 44.6154 42.8935Z" fill="#9CC31B"/>
</g>
</g>
</svg>
