<svg width="80" height="52" viewBox="0 0 80 52" fill="none" xmlns="http://www.w3.org/2000/svg">
<g id="Logo_SVG_white 1">
<g id="Group">
<path id="Vector" d="M57.5345 41.7624V33.3407C57.5345 32.7932 57.495 32.3021 57.416 31.8731C57.337 31.4441 57.2072 31.0829 57.0322 30.795C56.8516 30.5015 56.6201 30.2814 56.3323 30.129C56.0444 29.9766 55.6944 29.8975 55.2824 29.8975C54.8139 29.8975 54.4244 30.0048 54.114 30.2249C53.8035 30.4394 53.5551 30.7329 53.3632 31.0942C53.177 31.4554 53.0415 31.8788 52.9568 32.3586C52.8722 32.8383 52.8326 33.3407 52.8326 33.8657V38.7482C52.8326 39.1038 52.8834 39.3917 52.9794 39.6118C53.0754 39.8319 53.2108 39.9956 53.3858 40.1198C53.5608 40.2383 53.7696 40.3174 54.0236 40.3569C54.2776 40.3964 54.5599 40.4133 54.8703 40.4133H54.955V41.7737H46.3188V40.4133H46.3753C46.697 40.4133 46.9905 40.3964 47.2558 40.3569C47.5211 40.3174 47.7526 40.2383 47.9501 40.1142C48.1477 39.99 48.3001 39.8094 48.413 39.5779C48.5259 39.3465 48.5767 39.036 48.5767 38.6522V31.066C48.5767 30.7104 48.5259 30.4225 48.4299 30.2024C48.334 29.9879 48.1985 29.8185 48.0179 29.6943C47.8372 29.5758 47.6284 29.4968 47.38 29.4573C47.1317 29.4178 46.8551 29.4008 46.5446 29.4008H46.4543V28.0405H52.3585L52.731 29.8637H52.8665C53.1487 29.3783 53.4479 29.0001 53.764 28.7122C54.0801 28.43 54.4188 28.2098 54.7744 28.0631C55.13 27.9107 55.5082 27.8204 55.9089 27.7752C56.304 27.7357 56.7274 27.7131 57.1676 27.7131C57.8901 27.7131 58.5393 27.8091 59.115 28.001C59.6908 28.1929 60.1818 28.4864 60.5769 28.8872C60.9777 29.2879 61.2825 29.7959 61.4914 30.4168C61.7002 31.0377 61.8075 31.7828 61.8075 32.6464V38.5788C61.8075 38.9796 61.847 39.2957 61.926 39.5328C62.005 39.7698 62.1179 39.9505 62.276 40.0746C62.4284 40.1988 62.6259 40.2835 62.8686 40.323C63.1057 40.3625 63.3879 40.3851 63.704 40.3851H63.783V41.7454H57.5345V41.7624Z" fill="#9CC31B"/>
<path id="Vector_2" d="M72.0354 41.7624C70.8444 41.7624 69.7945 41.6043 68.8858 41.2939C67.977 40.9834 67.215 40.5319 66.5997 39.9392C65.9845 39.3465 65.5216 38.624 65.2112 37.766C64.9007 36.9081 64.7427 35.9316 64.7427 34.8309C64.7427 33.6512 64.9007 32.6126 65.2112 31.7207C65.5216 30.8289 65.9732 30.0838 66.5715 29.4799C67.1642 28.8815 67.898 28.43 68.7616 28.1308C69.6252 27.8316 70.613 27.6849 71.7193 27.6849C72.7353 27.6849 73.6498 27.8147 74.4682 28.0744C75.281 28.334 75.9753 28.7178 76.5398 29.2258C77.1099 29.7339 77.5445 30.366 77.8436 31.1224C78.1485 31.8788 78.2952 32.7537 78.2952 33.7528V35.0454H69.0777C69.1059 35.892 69.2075 36.6145 69.3881 37.2242C69.5688 37.8338 69.8115 38.3305 70.1276 38.7256C70.4437 39.1207 70.8275 39.4086 71.279 39.6005C71.7306 39.7868 72.2499 39.8827 72.8369 39.8827C73.3224 39.8827 73.7683 39.8319 74.1803 39.7303C74.5924 39.6287 74.9649 39.482 75.298 39.3013C75.631 39.1151 75.9245 38.9006 76.1785 38.6466C76.4325 38.3982 76.6131 38.1499 76.7768 37.8676C76.9462 37.8676 77.8944 37.8676 78.1033 37.8676C78.1033 37.8676 77.9848 39.7134 76.4269 40.7633C76.0035 41.0624 75.1794 41.3955 74.4908 41.5479C73.8078 41.689 72.9893 41.7624 72.0354 41.7624ZM71.7758 29.3275C70.9855 29.3275 70.3646 29.6774 69.9018 30.3717C69.4389 31.066 69.1849 32.0876 69.1398 33.4367H73.9997C73.9997 32.7988 73.9602 32.2231 73.8755 31.7151C73.7909 31.2071 73.661 30.7781 73.4861 30.4225C73.3054 30.0725 73.0797 29.8016 72.7974 29.6097C72.5208 29.4234 72.1765 29.3275 71.7758 29.3275Z" fill="#9CC31B"/>
<g id="Group_2">
<path id="Vector_3" d="M41.2389 14.059C41.2389 15.5661 41.0131 16.8925 40.5616 18.0271C40.11 19.1616 39.4948 20.1607 38.7045 21.0131C37.9199 21.8654 36.9886 22.5822 35.9161 23.1636C34.8437 23.745 33.6809 24.2304 32.4334 24.6256V24.8852C34.0534 25.1449 35.5323 25.5964 36.87 26.2286C38.2078 26.8608 39.3593 27.6905 40.3189 28.7066C41.2784 29.7226 42.0235 30.9249 42.5541 32.3134C43.0847 33.702 43.35 35.2824 43.35 37.0548C43.35 41.3842 41.8485 44.6241 38.8456 46.7804C35.8427 48.9366 31.265 50.009 25.1181 50.009L4.9502 49.9526V47.1303H5.85332C6.66049 47.1303 6.44035 47.136 7.14592 47.0231C7.85149 46.9158 8.46674 46.69 9.00297 46.3514C9.53356 46.0127 9.95125 45.5273 10.2504 44.8894C10.5496 44.2572 10.702 43.4162 10.702 42.3663V9.43611C10.702 8.45396 10.5439 7.65808 10.2335 7.05976C9.92303 6.45579 9.49969 5.99294 8.9691 5.66556C8.43852 5.33818 7.81762 5.12368 7.11205 5.02773C6.40649 4.93177 6.63791 4.82452 5.85332 4.82452H4.9502V2.00226L23.0014 2.0587C29.1483 2.0587 33.726 3.02392 36.7289 4.95999C39.7375 6.89607 41.2389 9.92718 41.2389 14.059ZM17.8762 23.2088H22.7982C24.8754 23.2088 26.6083 23.0338 27.9968 22.6838C29.3854 22.3339 30.4917 21.792 31.3271 21.0582C32.1569 20.3244 32.7552 19.3818 33.1108 18.219C33.4664 17.0619 33.647 15.6733 33.647 14.0533C33.647 12.4164 33.4495 11.0392 33.06 9.93847C32.6649 8.83779 32.0327 7.94595 31.1521 7.26861C30.2716 6.59126 29.137 6.11148 27.7372 5.82361C26.3373 5.54138 24.6327 5.39462 22.6232 5.39462H17.8762V23.2088ZM17.8762 46.6562H24.7738C26.7833 46.6562 28.4823 46.4812 29.8708 46.1312C31.2594 45.7813 32.3883 45.2168 33.2688 44.4435C34.1494 43.6702 34.7816 42.6542 35.1767 41.4124C35.5718 40.165 35.7637 38.6466 35.7637 36.8516C35.7637 35.1018 35.5887 33.5834 35.2444 32.2908C34.9001 30.9982 34.3018 29.9314 33.4607 29.0791C32.6197 28.2268 31.5021 27.5946 30.1135 27.1769C28.725 26.7648 26.9921 26.556 24.9149 26.556H17.8762V46.6562Z" fill="white"/>
<g id="Group_3">
<path id="Vector_4" d="M27.2067 41.4632L1.56918 41.4745V39.3126L18.9148 13.1559H10.29C9.56749 13.1559 10.1263 13.1502 9.5562 13.1559C9.05948 13.1615 9.34735 13.1389 8.41036 13.1559C7.97573 13.1615 8.27489 13.1671 7.80639 13.1559C7.72172 13.1559 8.00959 13.1559 6.97664 13.1559H6.26543H1.56918L1.55225 10.5142L27.3816 10.5086V12.7099L9.99647 38.8272H19.976C20.9243 38.8272 26.5575 38.7933 27.2067 38.7933" fill="#9CC31B"/>
<g id="Group_4">
<path id="Vector_5" d="M17.8818 13.4776H10.6963V38.5563H17.8818V13.4776Z" fill="white"/>
<path id="Vector_6" d="M20.8958 23.2088H17.5034V26.5503H20.8958V23.2088Z" fill="white"/>
</g>
</g>
</g>
<path id="Vector_7" d="M48.9835 10.5086V18.2755C48.9835 21.4082 50.7615 22.2266 52.6412 22.2266C54.7409 22.2266 56.0843 21.3235 56.0843 18.2755V10.5086H59.0703V18.3432C59.0703 22.5992 56.6488 24.5127 52.5509 24.5127C48.5545 24.5127 45.9976 22.7008 45.9976 18.4391V10.5086H48.9835Z" fill="white"/>
<path id="Vector_8" d="M69.5351 24.5127V19.3987C69.5351 19.2237 69.4843 19.1334 69.3771 18.9754L63.5688 10.5086H67.0628C68.5191 12.7664 70.4665 15.662 71.1269 16.9321C71.8324 15.6677 73.7742 12.7664 75.2361 10.5086H78.4478L72.5719 19.0883C72.4985 19.2012 72.4872 19.2745 72.4872 19.4495V24.5127H69.5351Z" fill="white"/>
<path id="Vector_9" d="M45.8788 34.718C45.8788 37.0887 45.2579 38.8554 44.0161 40.0182C42.7743 41.181 40.9511 41.7624 38.5409 41.7624C37.4176 41.7624 36.4016 41.6156 35.5041 41.3277C34.6066 41.0342 33.8446 40.5996 33.2181 40.0182C32.5915 39.4368 32.1118 38.703 31.7787 37.8168C31.4457 36.9306 31.2764 35.8977 31.2764 34.718C31.2764 32.3473 31.8973 30.5862 33.1391 29.4291C34.3809 28.2719 36.2097 27.6962 38.6256 27.6962C39.7545 27.6962 40.7592 27.8373 41.6567 28.1252C42.5485 28.413 43.3105 28.8477 43.9371 29.4291C44.5636 30.0104 45.0434 30.7442 45.3821 31.6248C45.7151 32.5053 45.8788 33.5326 45.8788 34.718ZM35.6452 34.718C35.6452 35.6098 35.696 36.4001 35.8033 37.0774C35.9105 37.7604 36.0799 38.3248 36.3113 38.7877C36.5427 39.2449 36.8475 39.5949 37.2257 39.8263C37.6039 40.0577 38.0611 40.1763 38.5973 40.1763C39.1392 40.1763 39.5908 40.0577 39.9633 39.8263C40.3358 39.5949 40.635 39.2449 40.8721 38.7877C41.1035 38.3305 41.2728 37.7604 41.3744 37.0774C41.476 36.3944 41.5268 35.6098 41.5268 34.718C41.5268 33.8149 41.476 33.0246 41.3688 32.3529C41.2616 31.6756 41.0922 31.1111 40.8608 30.6596C40.6294 30.208 40.3246 29.8693 39.9464 29.6435C39.5682 29.4178 39.111 29.3049 38.5747 29.3049C38.0329 29.3049 37.5757 29.4178 37.2031 29.6435C36.8249 29.8693 36.5258 30.208 36.2944 30.6596C36.0629 31.1111 35.8992 31.6756 35.7976 32.3529C35.696 33.0246 35.6452 33.8149 35.6452 34.718Z" fill="#9CC31B"/>
</g>
</g>
</svg>
